<svg id="visual" viewBox="0 0 960 300" width="960" height="300" xmlns="http://www.w3.org/2000/svg" xmlns:xlink="http://www.w3.org/1999/xlink" version="1.1"><rect x="0" y="0" width="960" height="300" fill="#FFFFFF"></rect><path d="M0 209L22.8 203.5C45.7 198 91.3 187 137 186.2C182.7 185.3 228.3 194.7 274 196.2C319.7 197.7 365.3 191.3 411.2 189.3C457 187.3 503 189.7 548.8 195C594.7 200.3 640.3 208.7 686 208.5C731.7 208.3 777.3 199.7 823 199.5C868.7 199.3 914.3 207.7 937.2 211.8L960 216L960 301L937.2 301C914.3 301 868.7 301 823 301C777.3 301 731.7 301 686 301C640.3 301 594.7 301 548.8 301C503 301 457 301 411.2 301C365.3 301 319.7 301 274 301C228.3 301 182.7 301 137 301C91.3 301 45.7 301 22.8 301L0 301Z" fill="#2d8bbf"></path><path d="M0 199L22.8 200.3C45.7 201.7 91.3 204.3 137 210.5C182.7 216.7 228.3 226.3 274 230.3C319.7 234.3 365.3 232.7 411.2 228.7C457 224.7 503 218.3 548.8 216C594.7 213.7 640.3 215.3 686 217.3C731.7 219.3 777.3 221.7 823 224.2C868.7 226.7 914.3 229.3 937.2 230.7L960 232L960 301L937.2 301C914.3 301 868.7 301 823 301C777.3 301 731.7 301 686 301C640.3 301 594.7 301 548.8 301C503 301 457 301 411.2 301C365.3 301 319.7 301 274 301C228.3 301 182.7 301 137 301C91.3 301 45.7 301 22.8 301L0 301Z" fill="#237fb8"></path><path d="M0 255L22.8 251.5C45.7 248 91.3 241 137 240.3C182.7 239.7 228.3 245.3 274 248.7C319.7 252 365.3 253 411.2 249.7C457 246.3 503 238.7 548.8 238.8C594.7 239 640.3 247 686 246.3C731.7 245.7 777.3 236.3 823 235.3C868.7 234.3 914.3 241.7 937.2 245.3L960 249L960 301L937.2 301C914.3 301 868.7 301 823 301C777.3 301 731.7 301 686 301C640.3 301 594.7 301 548.8 301C503 301 457 301 411.2 301C365.3 301 319.7 301 274 301C228.3 301 182.7 301 137 301C91.3 301 45.7 301 22.8 301L0 301Z" fill="#1a74b0"></path><path d="M0 264L22.8 260.7C45.7 257.3 91.3 250.7 137 247.5C182.7 244.3 228.3 244.7 274 248C319.7 251.3 365.3 257.7 411.2 259.5C457 261.3 503 258.7 548.8 259.5C594.7 260.3 640.3 264.7 686 265C731.7 265.3 777.3 261.7 823 260.2C868.7 258.7 914.3 259.3 937.2 259.7L960 260L960 301L937.2 301C914.3 301 868.7 301 823 301C777.3 301 731.7 301 686 301C640.3 301 594.7 301 548.8 301C503 301 457 301 411.2 301C365.3 301 319.7 301 274 301C228.3 301 182.7 301 137 301C91.3 301 45.7 301 22.8 301L0 301Z" fill="#1569a8"></path><path d="M0 284L22.8 281.3C45.7 278.7 91.3 273.3 137 273.5C182.7 273.7 228.3 279.3 274 282C319.7 284.7 365.3 284.3 411.2 281C457 277.7 503 271.3 548.8 267.7C594.7 264 640.3 263 686 264.8C731.7 266.7 777.3 271.3 823 272C868.7 272.7 914.3 269.3 937.2 267.7L960 266L960 301L937.2 301C914.3 301 868.7 301 823 301C777.3 301 731.7 301 686 301C640.3 301 594.7 301 548.8 301C503 301 457 301 411.2 301C365.3 301 319.7 301 274 301C228.3 301 182.7 301 137 301C91.3 301 45.7 301 22.8 301L0 301Z" fill="#145da0"></path></svg>