<svg id="visual" viewBox="0 0 960 400" width="960" height="400" xmlns="http://www.w3.org/2000/svg" xmlns:xlink="http://www.w3.org/1999/xlink" version="1.1"><path d="M0 264L22.8 261.5C45.7 259 91.3 254 137 260.7C182.7 267.3 228.3 285.7 274 294.3C319.7 303 365.3 302 411.2 297.5C457 293 503 285 548.8 276C594.7 267 640.3 257 686 254.2C731.7 251.3 777.3 255.7 823 266.7C868.7 277.7 914.3 295.3 937.2 304.2L960 313L960 401L937.2 401C914.3 401 868.7 401 823 401C777.3 401 731.7 401 686 401C640.3 401 594.7 401 548.8 401C503 401 457 401 411.2 401C365.3 401 319.7 401 274 401C228.3 401 182.7 401 137 401C91.3 401 45.7 401 22.8 401L0 401Z" fill="#145da0" stroke-linecap="round" stroke-linejoin="miter"></path></svg>